# xmcd
#
# Track frame offsets: 
#        150
#        16026
#        31003
#        49700
#        75941
#        92569
#        110054
#        135905
#        156532
#        172499
#        188716
#        205846
#        218998
#        237472
#        252749
#        270366
#        282139
#        296559
#        312358
#        331324
#
# Disc length: 4660 seconds
#
# Revision: 1
# Processed by: cddbd v1.5.2PL0 Copyright (c) Steve Scherf et al.
# Submitted via: ExactAudioCopy v0.99pb5
#
DISCID=1d123214
DTITLE=The Escorts - Hits Anthology
DYEAR=1900
DGENRE=Soul
TTITLE0=I'll Be Sweeter Tomorrow
TTITLE1=By The Time I Get To Phoenix
TTITLE2=Little Green Apples
TTITLE3=All We Need Is Another Chance
TTITLE4=Look Over Your Shoulder
TTITLE5=I'm So Glad I Found You
TTITLE6=Ooh Baby Baby
TTITLE7=Disrespect Can Wreck
TTITLE8=Let's Make Love At Home Sometimes
TTITLE9=Corruption
TTITLE10=We've Come Too Far To End It Now
TTITLE11=Brother
TTITLE12=I Only Have Eyes For You
TTITLE13=The Shoo-Nough
TTITLE14=La La Means I Love You
TTITLE15=Within Without
TTITLE16=I Can't Stand To See You Cry
TTITLE17=Hypnotized
TTITLE18=There's A Love For Everyone
TTITLE19=Interviews
EXTD=
EXTT0=
EXTT1=
EXTT2=
EXTT3=
EXTT4=
EXTT5=
EXTT6=
EXTT7=
EXTT8=
EXTT9=
EXTT10=
EXTT11=
EXTT12=
EXTT13=
EXTT14=
EXTT15=
EXTT16=
EXTT17=
EXTT18=
EXTT19=
PLAYORDER=
